<svg clip-rule="evenodd" fill-rule="evenodd" height="850" image-rendering="optimizeQuality" shape-rendering="geometricPrecision" text-rendering="geometricPrecision" viewBox="0 0 850 850" width="850" xmlns="http://www.w3.org/2000/svg"><g id="Layer_x0020_1"><circle cx="425" cy="425" fill="#6c339c" r="425"/><g id="_449003784"><g><g><path id="_449003328" d="m425 578.099c-1.78583 0-3.47896-.795969-4.61877-2.17077-33.0038-39.8166-51.1795-93.4569-51.1795-151.04 0-57.5833 18.1758-111.224 51.1795-151.04 1.13981-1.3748 2.83295-2.17077 4.61877-2.17077 1.78583 0 3.47896.795969 4.61877 2.17077 33.0049 39.8166 51.1804 93.4569 51.1804 151.04 0 57.5822-18.176 111.224-51.1804 151.04-1.13981 1.3748-2.83295 2.17077-4.61877 2.17077zm0-290.791c-28.2946 37.0148-43.7984 85.5519-43.7984 137.579s15.5038 100.565 43.7984 137.579c28.2946-37.0145 43.7995-85.5519 43.7995-137.579 0-52.0277-15.505-100.565-43.7995-137.58z" fill="#fefefe"/></g><g><path id="_449007240" d="m427.744 578.296c-1.04088 0-2.07695-.270992-3.00019-.803906-1.54687-.893197-2.6161-2.42901-2.916-4.18876-.173764-1.02387-.337606-2.05313-.49578-3.0841-.253984-1.65515.195024-3.34091 1.23902-4.64882 29.8106-37.4012 46.2274-87.363 46.2274-140.681 0-9.16611-.501166-18.4079-1.48989-27.4677-.162142-1.48621.235843-2.97893 1.11685-4.18706 27.6015-37.8414 64.6923-66.7999 104.443-81.5409 1.67301-.621071 3.53906-.463181 5.08621.428882 1.54687.892914 2.61496 2.42901 2.91515 4.18989 8.6726 50.9845-2.40605 106.527-31.1978 156.395-28.7918 49.8674-71.3532 87.234-119.842 105.215-.675213.250299-1.38104.374173-2.08517.374173zm51.7385-179.838c.873638 8.73978 1.31584 17.6187 1.31584 26.4317 0 50.0304-13.8317 97.3418-39.2227 135.036 39.2514-18.7659 73.5231-51.3374 97.7029-93.2168 26.0127-45.0533 36.8538-94.8396 30.8597-141.04-34.3057 14.3484-66.2131 39.9322-90.6557 72.7892z" fill="#fefefe"/></g><g><path id="_449007120" d="m422.256 578.296c-.704126 0-1.40995-.123874-2.08517-.374173-48.4903-17.9807-91.0506-55.3473-119.842-105.215-28.7918-49.8694-39.8704-105.411-31.1967-156.395.300189-1.76088 1.36828-3.29698 2.91515-4.18989 1.54602-.893197 3.41121-1.04995 5.08621-.428882 39.7505 14.7407 76.8422 43.6995 104.443 81.5409.881008 1.20813 1.27899 2.70085 1.11685 4.18706-.988158 9.05613-1.48989 18.2968-1.48989 27.4677 0 53.3183 16.4169 103.28 46.2274 140.681 1.044 1.30904 1.49216 2.99424 1.23817 4.64882-.15789 1.03096-.320882 2.05994-.49578 3.0841-.300189 1.76088-1.36828 3.29669-2.91515 4.18876-.924378.532914-1.96044.803906-3.00132.803906zm-142.395-252.629c-5.99386 46.2005 4.8481 95.986 30.8597 141.04 24.1787 41.8785 58.451 74.45 97.7035 93.2168-25.3905-37.6934-39.2224-85.006-39.2224-135.036 0-8.81603.441638-17.6958 1.31584-26.4317-24.4412-32.8547-56.3491-58.4385-90.6565-72.7892z" fill="#fefefe"/></g><g><g><path id="_449005392" d="m396.841 578.322c-41.4235 0-83.6972-11.7646-122.248-34.0217-49.8677-28.7918-87.234-71.3532-105.215-119.843-.621071-1.67528-.464315-3.53906.428882-5.08621.893197-1.54687 2.42901-2.61496 4.18989-2.91515 11.0302-1.87597 22.5147-2.82756 34.1337-2.82756 27.5066 0 55.2923 5.15169 82.5849 15.3136 1.60299.596977 2.87518 1.84989 3.49682 3.44183 4.57285 11.7247 10.1268 23.2719 16.507 34.3228 26.2497 45.4652 64.6424 80.142 108.302 97.892.629008-.496063 1.36233-.870237 2.16737-1.0851 1.28976-.34526 2.62573-.243213 3.81288.240945 1.18715-.484158 2.52284-.583937 3.81033-.239811 2.29776.612851 4.01669 2.52567 4.38066 4.87701l.106866.691937c.244347 1.57493-.146835 3.18302-1.08992 4.46825-.943087 1.28495-2.35701 2.14271-3.93392 2.38394l-.75515.114803c-.512221.0779528-1.02331.0881575-1.52391.0371339-.463181.189071-.953008.32315-1.46211.393166l-1.24611.162142c-.597827.0759685-1.19395.0637796-1.77279-.0351496-.537732.232724-1.116.390047-1.72205.456945-7.49792.834803-15.2209 1.25773-22.9519 1.25773zm-213.495-151.13c17.9087 43.0115 52.1892 80.7021 97.2457 106.715 36.0122 20.7919 75.3619 31.9737 113.946 32.4017-37.7864-20.3239-70.6879-52.8602-94.2118-93.6032-6.2229-10.7799-11.698-22.0147-16.2918-33.4335-25.1439-9.05613-50.6673-13.646-75.9042-13.646-8.388.00170079-16.6944.526677-24.7842 1.56558zm203.25 79.092c-2.54183 0-4.90309-1.62907-5.71607-4.18195l-.139748-.437953c-1.00488-3.15723.738992-6.53216 3.89594-7.53704 1.89978-.606047 3.87695-.21515 5.36995.879024.994961.727937 1.77392 1.76684 2.17276 3.03194l.134079.424063c.300189.941103.354898 1.9029.20126 2.8148v.00113386c0 .00198425-.00113386.00510236-.00113386.00793701v.00113386c0 .00198425-.00113386.00510236-.00113386.00793701v.00113386c0 .00311811-.00113386.00510236-.00113386.00793701v.00113386c0 .00311811-.00113386.00510236-.00113386.00793701v.00198425c0 .00198425 0 .0048189-.00113386.00708662v.00198425c0 .00198425-.00113386.0048189-.00113386.00708662v.00198425c0 .00198425-.00113386.0048189-.00113386.00708662v.00198425c0 .00198425-.00113386.0048189-.00113386.00708662v.00311811c0 .00198425 0 .00425197-.00113386.00595276v.00311811c0 .00198425-.00113386.00425197-.00113386.00595276 0 .00113386 0 .00198425-.00113386.00311811 0 .00198425 0 .00425197-.00113386.00595276v.00311811c0 .00198425 0 .00425197-.00113386.00595276 0 .00113386 0 .00311811-.00113386.00425197v.0048189c0 .00113386-.00113386.00311811-.00113386.00425197 0 .00198425 0 .00311811-.00113386.00425197 0 .00170079 0 .00396851-.00113386.0048189v.0048189c0 .00113386-.00113386.00311811-.00113386.00510236 0 .00113386 0 .00170079-.00113386.00283465 0 .00198425 0 .00425197-.00113386.00623622v.00283465c0 .00198425-.00113386.00425197-.00113386.00623622v.00283465c0 .00198425 0 .00425197-.00113386.00737008v.00170079c0 .00198425-.00113386.00425197-.00113386.00737008v.00170079c0 .00198425-.00113386.00510236-.00113386.00737008v.00170079c0 .00198425-.00113386.00510236-.00113386.00737008v.00170079c0 .00198425-.00113386.00510236-.00113386.00737008v.00170079c0 .00311811-.00113386.00510236-.00113386.00793701v.00113386c0 .00198425-.00113386.00510236-.00198425.00793701v.00113386c0 .00198425-.00113386.00510236-.00113386.00793701v.00113386c0 .00198425-.00113386.00510236-.00113386.00793701v.00113386c-.0949607.449008-.240095.884126-.433134 1.29798-.00198425.0048189-.0048189.0107717-.00793701.015874-.00113386.00283465-.00198425.00595276-.00311811.00907087l.00396851-.00170079c-.00113386.00198425-.00198425.00510236-.00311811.00793701v.00113386c-.00113386.00198425-.00198425.00510236-.00311811.00737008v.00113386c-.00113386.00170079-.00170079.0048189-.00396851.00793701-.00113386.00283465-.00198425.0048189-.00425197.00793701v.00113386c-.00113386.00170079-.00198425.00396851-.00311811.00708662 0 0 0 .00113386-.00113386.00113386-.00113386.00311811-.00170079.0048189-.00283465.00708662v.00113386c-.00113386.00311811-.00198425.00510236-.00311811.00737008 0 .00113386 0 .00170079-.00113386.00170079-.00113386.00198425-.00198425.00425197-.00311811.00623622 0 .00113386 0 .00170079-.00113386.00170079-.00113386.00311811-.00170079.00425197-.00283465.00737008 0 0-.00113386.00113386-.00113386.00170079 0 .00198425-.00113386.00425197-.00198425.00623622 0 .00113386-.00113386.00113386-.00113386.00170079-.00113386.00198425-.00198425.00425197-.00311811.00623622 0 .00113386-.00113386.00170079-.00113386.00283465-.00113386.00198425-.00113386.00311811-.00170079.00510236 0 .00113386-.00113386.00170079-.00113386.00283465-.00198425.00425197-.00311811.00510236-.00425197.00907087-.00113386.00113386-.00198425.00311811-.00311811.00510236 0 .00113386 0 .00170079-.00113386.00170079-.00113386.00198425-.00170079.00425197-.00283465.00623622 0 .00113386-.00113386.00170079-.00113386.00283465-.00113386.00198425-.00113386.00311811-.00198425.00510236 0 .00113386-.00113386.00170079-.00113386.00396851-.00198425.00198425-.00198425.00737008-.00425197.00793701-.00113386.00198425-.00283465.00623622-.00396851.00793701 0 .00198425-.00113386.00311811-.00198425.00425197-.00113386.00198425-.00113386.00311811-.00198425.0048189 0 .00113386-.00113386.00198425-.00113386.00311811-.00113386.00425197-.00170079.00595276-.00396851.00793701 0 .00198425-.00113386.00425197-.00198425.00595276-.00113386.00311811-.00198425.00425197-.00425197.00793701 0 .00113386-.00113386.00198425-.00113386.00311811-.00113386.00198425-.00170079.00311811-.00283465.0048189 0 .00113386-.00113386.00198425-.00113386.00311811-.00113386.00425197-.00311811.00708662-.00425197.00793701-.00113386.00198425-.00198425.00425197-.00311811.00595276 0 .00113386 0 .00113386-.00113386.00198425-.00113386.00198425-.00170079.00425197-.00283465.00595276-.00113386 0-.00311811.00425197-.00425197.00793701 0 .00113386 0 .00198425-.00113386.00198425-.00113386.00198425-.00198425.00425197-.00311811.00595276 0 .00113386-.00113386.00198425-.00113386.00311811-.00113386.00198425-.00170079.00425197-.00283465.00595276 0 0-.00113386.00113386-.00113386.00198425-.00113386.00198425-.00198425.00425197-.00311811.00595276 0 0 0 .00113386-.00113386.00198425-.00113386.00198425-.00198425.00425197-.00311811.00595276v.00198425c-.00113386.00198425-.00170079.00425197-.00396851.00708662v.00113386c-.00113386.00198425-.00198425.00510236-.00425197.00737008v.00113386c-.00113386.00170079-.00198425.0048189-.00425197.00708662v.00113386c-.00113386.00198425-.00170079.0048189-.00396851.00708662v.00113386c-.00113386.00198425-.00311811.00510236-.00425197.00793701-.00311811.00510236-.00595276.0110551-.00793701.015874l.00453543-.00170079c-.399969.738142-.954992 1.39295-1.63701 1.91197h-.00028347c-.00198425.00198425-.0048189.00425197-.00708662.0048189v.00113386c-.00198425.00113386-.00425197.00311811-.00737008.00510236h.00056693c-.00198425.00170079-.00510236.00396851-.00737008.00595276h.00056693c-.00198425.00198425-.00425197.00311811-.00623622.0048189 0 0-.00113386.00113386-.00113386.00113386-.00170079.00198425-.00396851.00311811-.00595276.00510236-.00198425 0-.00425197.00283465-.00708662.0048189 0 .00113386-.00113386.00113386-.00113386.00113386-.00198425.00198425-.00425197.00311811-.00623622.0048189-.00170079.00113386-.0048189.00425197-.00708662.00510236-.00113386.00170079-.00425197.00170079-.00708662.00595276 0 0-.00113386.00113386-.00198425.00113386-.00311811.00198425-.00595276.00311811-.00708662.00595276-.00311811.00198425-.00510236.00311811-.00793701.00623622-.00198425.00170079-.00623622.00396851-.00737008.0048189-.00283465.00113386-.00595276.00311811-.00793701.00595276-.00283465.00113386-.0048189.00311811-.00708662.00623622-.00311811.00113386-.0048189.00170079-.00793701.0048189-.00198425.00198425-.00425197.00425197-.00708662.00595276-.00198425.00198425-.00510236.00311811-.00793701.00510236-.00311811.00170079-.00425197.00396851-.00737008.00595276-.00170079.00425197-.0048189.0048189-.00793701.00595276-.00170079 0-.00283465.00425197-.00793701.00510236-.00170079.00283465-.00396851.00283465-.00708662.00595276-.00113386 0-.00113386.00113386-.00198425.00113386-.00170079.00311811-.00708662.00311811-.00708662.00595276-.00198425.00113386-.00595276.00510236-.00708662.00510236-.00311811.00283465-.00623622.00396851-.00793701.00595276-.00113386.00113386-.00311811.00198425-.00510236.00425197-.00113386.00113386-.0048189.00396851-.00708662.0048189-.00113386 0-.00113386.00113386-.00198425.00113386-.00170079.00198425-.00396851.00311811-.00595276.0048189 0 0 0 0-.00113386 0-.00198425.00198425-.00311811.00198425-.00708662.00623622-.00198425.00113386-.00510236.00283465-.00737008.0048189l.00226772-.00028347c-.00170079.00170079-.0048189.00283465-.00708662.0048189 0-.00113386-.00425197.00311811-.00793701.00595276-.00198425.00113386-.0048189.00311811-.00708662.00510236l.00028347.00028347c-.0048189.00425197-.00992126.00708662-.0150236.0110551-.275244.187087-.568063.352914-.878174.493795-.00283465.00113386-.0048189.00311811-.00793701.00425197-.00283465.00113386-.00396851.00425197-.00907087.00425197-.00170079.00113386-.0048189.00283465-.00793701.00396851.00198425 0-.0048189.00311811-.00793701.00425197-.00113386 0-.00113386 0-.00170079 0-.00311811.00198425-.00623622.00425197-.00907087.00425197-.00311811.00113386-.00510236.00283465-.00907087.0048189-.00311811 0-.00623622.00198425-.00907087.00425197-.00311811 0-.00737008.00170079-.00907087.00396851-.00311811 0-.00510236.00113386-.00907087.00425197-.00311811 0-.00737008.00198425-.00907087.00425197-.00311811.00113386-.00510236.00283465-.00907087.00396851-.00198425.00113386-.00510236.00311811-.00907087.00425197-.00113386 0-.00623622.00311811-.00793701.00425197-.00198425 0-.00623622.00283465-.00907087.00396851-.00113386 0-.00113386 0-.00198425 0-.00311811.00311811-.00992126.00425197-.00793701.00425197-.00311811.00113386-.0048189.00198425-.00793701.00425197-.00311811.00113386-.00595276.00170079-.00907087.00396851-.170929.0722835-.346961.136913-.526961.19389-.637796.17178-1.25206.263906-1.85499.263906z" fill="#fefefe"/></g><g><path id="_449012496" d="m453.158 578.322c-7.73093 0-15.4539-.422929-22.9536-1.25773-.602646-.0663307-1.17865-.223087-1.71383-.45411-.328819.0552756-.638079.0632126-1.01225.0822048-.255118 0-.511937-.0170079-.76989-.0498898l-1.24498-.162142c-.506835-.0691654-.995811-.201827-1.45814-.392032-.178016.0189921-.357732.028063-.540851.0297638-.322016-.00283465-.655937-.0187087-.98589-.0680315l-.75515-.114803c-1.57606-.241228-2.99112-1.09899-3.93421-2.38394-.942803-1.28523-1.33484-2.89304-1.09106-4.46825l.106866-.691937c.365102-2.35021 2.0829-4.26303 4.3801-4.87701 1.28806-.34526 2.62403-.244347 3.81203.239811 1.18403-.484158 2.5149-.585071 3.80296-.244063.807874.21515 1.54488.58989 2.17701 1.08822 43.6592-17.75 82.052-52.4265 108.302-97.892 6.37994-11.0497 11.935-22.5981 16.5076-34.3228.622205-1.59307 1.89411-2.84599 3.49625-3.44183 27.2934-10.1619 55.0795-15.3136 82.5857-15.3136 11.6189 0 23.1035.950741 34.1337 2.82756 1.76173.300189 3.29669 1.36828 4.18989 2.91515.892914 1.54715 1.05109 3.41093.430016 5.08621-17.9807 48.4903-55.3482 91.0517-105.216 119.843-38.552 22.2576-80.8246 34.0217-122.248 34.0217zm112.807-139.048c-4.59525 11.4197-10.0689 22.6545-16.293 33.4338-23.5227 40.7415-56.4253 73.2779-94.212 93.6029 38.5838-.428882 77.9341-11.6099 113.947-32.4014 45.0573-26.0138 79.3369-63.7044 97.2457-106.716-8.09008-1.0389-16.3959-1.56387-24.7836-1.56387-25.2363-.00141732-50.7612 4.58929-75.9036 13.6443zm-102.577 67.0558c-.602646 0-1.2138-.0918426-1.81786-.282898-3.15695-1.00318-4.90394-4.37528-3.90189-7.53307l.153071-.483024c.0989292-.312095.223087-.614835.371906-.907087 1.41676-2.78391 4.73499-4.01358 7.62463-2.82983 2.89106 1.18573 4.3869 4.39087 3.44013 7.3681l-.153921.484725c-.812126 2.55232-3.1731 4.18309-5.71607 4.18309z" fill="#fefefe"/></g></g><g><path id="_448997376" d="m288.618 440.564c-.701859 0-1.4108-.123024-2.0931-.377008-17.7299-6.60189-35.9053-11.0186-54.0224-13.1278-2.1617-.25115-4.01783-1.65402-4.8498-3.6652-8.37298-20.2326-13.5899-40.8705-15.505-61.3412-.166961-1.77789.468-3.53906 1.73112-4.80189 1.26312-1.26255 3.02684-1.89865 4.80104-1.73084 19.0517 1.78186 38.3015 6.4389 57.2139 13.8427 2.07014.809859 3.5229 2.69887 3.77405 4.90791 2.22293 19.5236 7.11355 39.0765 14.5395 58.1122.859181 2.20309.344126 4.70495-1.31414 6.39099-1.14746 1.16589-2.69603 1.79008-4.27521 1.79008zm-51.1821-24.9829c13.8189 1.8258 27.6457 4.91896 41.2764 9.22989-5.01081-15.0129-8.53909-30.2737-10.5228-45.5474-14.341-5.34473-28.8448-9.01644-43.2525-10.9559 2.12003 15.7731 6.31191 31.6293 12.4988 47.2734z" fill="#fefefe"/></g><g><path id="_449009448" d="m376.723 402.766c-1.88617 0-3.70035-.892063-4.8481-2.46501-12.6451-17.335-27.2466-32.6645-43.4004-45.5635-1.61518-1.28891-2.45282-3.31795-2.21698-5.37194 2.65493-23.1755 8.62073-44.9912 17.7304-64.84.744945-1.62284 2.17531-2.82983 3.90019-3.29188 1.72602-.462898 3.56712-.131811 5.02413.901134 16.8378 11.9421 32.1554 26.8475 45.5275 44.3016 1.30507 1.70419 1.60101 3.97588.775276 5.95786-8.47588 20.3349-14.0372 42.2127-16.5277 65.0234-.269291 2.46302-2.02394 4.50709-4.41808 5.14573-.512221.136347-1.03238.202677-1.5463.202677zm-38.1467-55.2875c12.3358 10.1407 23.7756 21.6369 34.1504 34.3097 2.92507-17.6176 7.64306-34.6255 14.0839-50.7563-10.5021-13.2769-22.2007-24.9137-34.8744-34.6947-6.53499 15.8958-11.0191 33.0528-13.36 51.1413z" fill="#fefefe"/></g><g><path id="_449009712" d="m473.276 402.766c-.515055 0-1.0338-.0663307-1.54687-.202961-2.39386-.639213-4.14794-2.68299-4.4178-5.14573-2.46501-22.578-7.93985-44.2483-16.2729-64.4103-.820063-1.98397-.518173-4.25509.792851-5.95503 13.2721-17.2159 28.4454-31.9337 45.1006-43.7457 1.45701-1.03408 3.29896-1.3629 5.02299-.900851 1.72602.461764 3.15496 1.66876 3.89991 3.29188 8.97903 19.5588 14.906 41.0437 17.6176 63.8561.244347 2.05795-.58989 4.09578-2.20677 5.39178-16.0506 12.854-30.5657 28.1137-43.1425 45.3552-1.14633 1.57351-2.96107 2.46558-4.84725 2.46558zm-9.82999-71.0833c6.30992 15.9375 10.9398 32.7263 13.8257 50.1052 10.2969-12.5776 21.6437-23.9967 33.8726-34.0807-2.37628-17.744-6.81704-34.5847-13.2369-50.1993-12.5056 9.65226-24.0633 21.1133-34.4614 34.1748z" fill="#fefefe"/></g><g><path id="_448999536" d="m561.382 440.564c-1.57918 0-3.12803-.624189-4.27606-1.79008-1.65884-1.68605-2.17417-4.18791-1.31414-6.39099 7.07103-18.1287 11.8528-36.7586 14.2107-55.3714.277228-2.18778 1.7331-4.04788 3.79106-4.84299 18.5837-7.17392 37.4916-11.6989 56.2-13.449 1.77789-.170079 3.53792.468 4.80104 1.73112 1.26397 1.26312 1.89808 3.02287 1.73112 4.80189-1.81134 19.3448-6.58007 38.8783-14.1758 58.0592-.812977 2.05399-2.68923 3.49484-4.88381 3.75109-18.108 2.11068-36.2724 6.52592-53.9915 13.1238-.681449.253984-1.39039.377291-2.09254.377291zm20.0398-58.4456c-2.04208 14.3189-5.43799 28.6217-10.135 42.6935 13.5989-4.30101 27.3937-7.39077 41.1834-9.21799 5.51282-14.6098 9.28999-29.3925 11.2672-44.0833-14.0939 1.89496-28.2818 5.45103-42.3156 10.6078z" fill="#fefefe"/></g></g></g></g></svg>